<?xml version="1.0" encoding="UTF-8" standalone="no"?>
<!-- Created with Inkscape (http://www.inkscape.org/) -->

<svg
   xmlns:dc="http://purl.org/dc/elements/1.1/"
   xmlns:cc="http://creativecommons.org/ns#"
   xmlns:rdf="http://www.w3.org/1999/02/22-rdf-syntax-ns#"
   xmlns:svg="http://www.w3.org/2000/svg"
   xmlns="http://www.w3.org/2000/svg"
   xmlns:sodipodi="http://sodipodi.sourceforge.net/DTD/sodipodi-0.dtd"
   xmlns:inkscape="http://www.inkscape.org/namespaces/inkscape"
   id="svg4099"
   version="1.1"
   inkscape:version="0.48.1 "
   viewBox="104 82.7 121.1 121.1"
   xml:space="preserve"
   sodipodi:docname="New document 2"><metadata
     id="metadata4105"><rdf:RDF><cc:Work
         rdf:about=""><dc:format>image/svg+xml</dc:format><dc:type
           rdf:resource="http://purl.org/dc/dcmitype/StillImage" /><dc:title></dc:title></cc:Work></rdf:RDF></metadata><defs
     id="defs4103" /><sodipodi:namedview
     pagecolor="#ffffff"
     bordercolor="#666666"
     borderopacity="1"
     objecttolerance="10"
     gridtolerance="10"
     guidetolerance="10"
     inkscape:pageopacity="0"
     inkscape:pageshadow="2"
     inkscape:window-width="1280"
     inkscape:window-height="1004"
     id="namedview4101"
     showgrid="false"
     inkscape:zoom="0.68681946"
     inkscape:cx="-275.39721"
     inkscape:cy="838.5666"
     inkscape:window-x="0"
     inkscape:window-y="0"
     inkscape:window-maximized="1"
     inkscape:current-layer="g4109" /><g
     id="g4107"
     inkscape:groupmode="layer"
     inkscape:label="märke"
     transform="matrix(1.25,0,0,-1.25,0,1052.3622)"><g
       id="g4109"
       transform="scale(1,-1)"><path
         d="m 111.94727,-687.51367 c 5.91601,2.92383 12.57617,4.5664 19.625,4.5664 24.50781,0 44.37304,-19.86523 44.37304,-44.375 0,-17.39257 -10.00781,-32.44921 -24.57812,-39.72461"
         style="fill:#23306c;fill-opacity:1;fill-rule:nonzero;stroke:none"
         id="path4111" /><path
         d="m 111.94727,-687.51367 c 5.91601,2.92383 12.57617,4.5664 19.625,4.5664 24.50781,0 44.37304,-19.86523 44.37304,-44.375 0,-17.39257 -10.00781,-32.44921 -24.57812,-39.72461"
         style="fill:none;stroke:#dddfe3;stroke-opacity:1;stroke-width:1;stroke-linecap:butt;stroke-linejoin:miter;stroke-miterlimit:4;stroke-dasharray:none"
         id="path4113" /><path
         d="m 151.36719,-767.04688 c -5.96094,-2.97656 -12.68164,-4.64843 -19.79492,-4.64843 -24.50977,0 -44.375,19.86718 -44.375,44.37304 0,17.46289 10.08398,32.56641 24.75,39.8086"
         style="fill:#ffffff;fill-opacity:1;fill-rule:nonzero;stroke:none"
         id="path4115" /><path
         d="m 151.36719,-767.04688 c -5.96094,-2.97656 -12.68164,-4.64843 -19.79492,-4.64843 -24.50977,0 -44.375,19.86718 -44.375,44.37304 0,17.46289 10.08398,32.56641 24.75,39.8086"
         style="fill:none;stroke:#dddfe3;stroke-opacity:1;stroke-width:1;stroke-linecap:butt;stroke-linejoin:miter;stroke-miterlimit:4;stroke-dasharray:none"
         id="path4117" /><path
         d="m 123.54492,-709.71289 c -13.24609,-5.21289 -16.61719,-21.69727 -10.56445,-34.23242 5.91406,-12.25782 17.60547,-15.21289 31.97461,-10.56446"
         style="fill:none;stroke:#dddfe3;stroke-opacity:1;stroke-width:1;stroke-linecap:butt;stroke-linejoin:miter;stroke-miterlimit:4;stroke-dasharray:none"
         id="path4119" /><path
         d="m 151.15234,-767.04883 c 6.90235,2.95899 24.9336,17.1875 24.65235,37.61328 -0.2793,20.42578 -7.80469,27.3794 -7.80469,27.3794 0,0 -3.04102,-1.6001 -4.30664,-1.6001 -1.26758,0 -2.53516,1.41016 -3.66406,1.41016 -1.12891,0 -3.24024,-0.84571 -3.24024,-0.84571 0,0 -11.41211,-0.42187 -11.41211,-0.42187 0,0 -9.86132,3.09765 -10.56445,3.09765 -0.70508,0 -7.18359,-3.94531 -9.01562,-4.08593 -1.83008,-0.14063 -6.3418,2.39648 -6.3418,2.39648"
         style="fill:#ed1c24;fill-opacity:1;fill-rule:nonzero;stroke:none"
         id="path4121" /><path
         d="m 151.15234,-767.04883 c 6.90235,2.95899 24.9336,17.1875 24.65235,37.61328 -0.2793,20.42578 -7.80469,27.3794 -7.80469,27.3794 0,0 -3.04102,-1.6001 -4.30664,-1.6001 -1.26758,0 -2.53516,1.41016 -3.66406,1.41016 -1.12891,0 -3.24024,-0.84571 -3.24024,-0.84571 0,0 -11.41211,-0.42187 -11.41211,-0.42187 0,0 -9.86132,3.09765 -10.56445,3.09765 -0.70508,0 -7.18359,-3.94531 -9.01562,-4.08593 -1.83008,-0.14063 -6.3418,2.39648 -6.3418,2.39648"
         style="fill:none;stroke:#dddfe3;stroke-opacity:1;stroke-width:1;stroke-linecap:butt;stroke-linejoin:miter;stroke-miterlimit:4;stroke-dasharray:none"
         id="path4123" /><path
         d="m 116.07422,-694.2168 c 0,0 4.79101,-2.53711 7.04492,-2.67773 2.25195,-0.13867 9.01758,1.6914 10.84961,1.6914 1.83008,0 7.18164,-1.26757 7.18164,-1.26757"
         style="fill:none;stroke:#dddfe3;stroke-opacity:1;stroke-width:1;stroke-linecap:butt;stroke-linejoin:miter;stroke-miterlimit:4;stroke-dasharray:none"
         id="path4125" /><path
         d="m 114.38867,-690.55469 c 2.81446,-0.28125 11.12891,2.25391 14.64649,2.25391 3.52343,0 4.65039,-1.83008 6.48047,-1.68945 1.83398,0.14062 4.08789,1.26757 4.08789,1.26757"
         style="fill:none;stroke:#dddfe3;stroke-opacity:1;stroke-width:1;stroke-linecap:butt;stroke-linejoin:miter;stroke-miterlimit:4;stroke-dasharray:none"
         id="path4127" /><path
         d="m 146.7832,-759.55957 c 12.70508,6.79492 17.63672,18.23828 12.37891,31.23828 -4.02539,9.95117 -19.02734,17.88086 -32.09961,11.30664"
         style="fill:#ffffff;fill-opacity:1;fill-rule:nonzero;stroke:none"
         id="path4129" /><path
         d="m 146.7832,-759.55957 c 12.70508,6.79492 17.63672,18.23828 12.37891,31.23828 -4.02539,9.95117 -19.02734,17.88086 -32.09961,11.30664"
         style="fill:none;stroke:#dddfe3;stroke-opacity:1;stroke-width:1;stroke-linecap:butt;stroke-linejoin:miter;stroke-miterlimit:4;stroke-dasharray:none"
         id="path4131" /><path
         d="m 111.42773,-710.83984 c 0,0 -0.98437,0.98632 -2.67773,0.98632 -1.82812,0 -1.6875,-2.53515 -9.85937,-2.39453 -6.20118,0.10742 -7.32618,3.09766 -7.32618,3.09766 0,0 3.94336,8.73437 8.59375,13.10156 5.77539,5.42188 11.97657,8.73438 11.97657,8.73438 0,0 8.73046,-17.60938 8.73046,-17.60938"
         style="fill:#ed1c24;fill-opacity:1;fill-rule:nonzero;stroke:none"
         id="path4133" /><path
         d="m 111.42773,-710.83984 c 0,0 -0.98437,0.98632 -2.67773,0.98632 -1.82812,0 -1.6875,-2.53515 -9.85937,-2.39453 -6.20118,0.10742 -7.32618,3.09766 -7.32618,3.09766 0,0 3.94336,8.73437 8.59375,13.10156 5.77539,5.42188 11.97657,8.73438 11.97657,8.73438 0,0 8.73046,-17.60938 8.73046,-17.60938"
         style="fill:none;stroke:#dddfe3;stroke-opacity:1;stroke-width:1;stroke-linecap:butt;stroke-linejoin:miter;stroke-miterlimit:4;stroke-dasharray:none"
         id="path4135" /><path
         d="m 120.86523,-704.92383 c -16.90234,-7.04297 -20.70703,-25.91992 -14.22656,-40.57031 9.33985,-21.11133 31.9375,-18.50977 40.85352,-13.80469 0,0 -4.36719,9.4375 -4.36719,9.4375 0,0 -6.76367,1.12695 -6.76367,1.12695 0,0 -5.63281,12.11524 -5.63281,12.11524 0,0 -2.81836,2.11133 -2.81836,2.11133 0,0 -0.70313,5.77734 -0.70313,5.77734 0,0 -4.22461,9.4375 -4.22461,9.4375 0,0 2.25196,5.49609 2.25196,5.49609 0,0 -4.36915,8.87305 -4.36915,8.87305 z"
         style="fill:#23306c;fill-opacity:1;fill-rule:nonzero;stroke:none"
         id="path4137" /><path
         d="m 120.86523,-704.92383 c -16.90234,-7.04297 -20.70703,-25.91992 -14.22656,-40.57031 9.33985,-21.11133 31.9375,-18.50977 40.85352,-13.80469 0,0 -4.36719,9.4375 -4.36719,9.4375 0,0 -6.76367,1.12695 -6.76367,1.12695 0,0 -5.63281,12.11524 -5.63281,12.11524 0,0 -2.81836,2.11133 -2.81836,2.11133 0,0 -0.70313,5.77734 -0.70313,5.77734 0,0 -4.22461,9.4375 -4.22461,9.4375 0,0 2.25196,5.49609 2.25196,5.49609 0,0 -4.36915,8.87305 -4.36915,8.87305 z"
         style="fill:none;stroke:#dddfe3;stroke-opacity:1;stroke-width:1;stroke-linecap:butt;stroke-linejoin:miter;stroke-miterlimit:4;stroke-dasharray:none"
         id="path4139" /><path
         d="m 135.37695,-682.94531 c 3.94336,-3.09961 5.07227,-8.17188 5.07227,-8.17188 0,0 -3.52149,-0.0371 -2.82031,-0.84375 5.77343,-6.625 8.17187,-12.96094 8.17187,-12.96094 0,0 -3.30469,-1.01562 -3.09961,-1.41015 4.64844,-8.875 5.07031,-12.11328 5.07031,-12.11328 0,0 -3.96484,0.33398 -3.3789,-0.56446 5.49609,-8.45312 4.78711,-10.14453 4.78711,-10.14453 0,0 -3.22071,1.21289 -2.81446,0.28321 5.20899,-11.97461 4.50782,-13.80469 4.50782,-13.80469 0,0 2.53125,9.29883 4.22265,13.24219 0.42383,0.98437 -2.13281,0.51757 -2.13281,0.51757 0,0 0.58594,4.41211 3.54492,9.625 0.21875,0.38672 -2.82031,0.5625 -2.82031,0.5625 0,0 2.25391,7.60743 5.63672,12.96094 0.73828,1.17188 -3.38281,0.28125 -3.38281,0.28125 0,0 0.65722,6.73487 4.60058,11.80518 0,0 -5.16113,4.25146 -9.53027,6.50732 -4.36524,2.25391 -15.63477,4.22852 -15.63477,4.22852 z"
         style="fill:#23306c;fill-opacity:1;fill-rule:nonzero;stroke:none"
         id="path4141" /><path
         d="m 135.37695,-682.94531 c 3.94336,-3.09961 5.07227,-8.17188 5.07227,-8.17188 0,0 -3.52149,-0.0371 -2.82031,-0.84375 5.77343,-6.625 8.17187,-12.96094 8.17187,-12.96094 0,0 -3.30469,-1.01562 -3.09961,-1.41015 4.64844,-8.875 5.07031,-12.11328 5.07031,-12.11328 0,0 -3.96484,0.33398 -3.3789,-0.56446 5.49609,-8.45312 4.78711,-10.14453 4.78711,-10.14453 0,0 -3.22071,1.21289 -2.81446,0.28321 5.20899,-11.97461 4.50782,-13.80469 4.50782,-13.80469 0,0 2.53125,9.29883 4.22265,13.24219 0.42383,0.98437 -2.13281,0.51757 -2.13281,0.51757 0,0 0.58594,4.41211 3.54492,9.625 0.21875,0.38672 -2.82031,0.5625 -2.82031,0.5625 0,0 2.25391,7.60743 5.63672,12.96094 0.73828,1.17188 -3.38281,0.28125 -3.38281,0.28125 0,0 0.65722,6.73487 4.60058,11.80518 0,0 -5.16113,4.25146 -9.53027,6.50732 -4.36524,2.25391 -15.63477,4.22852 -15.63477,4.22852 z"
         style="fill:none;stroke:#dddfe3;stroke-opacity:1;stroke-width:1;stroke-linecap:butt;stroke-linejoin:miter;stroke-miterlimit:4;stroke-dasharray:none"
         id="path4143" /><path
         d="m 151.43555,-767.1875 c 0,0 -38.88086,79.45117 -38.88086,79.45117"
         style="fill:none;stroke:#dddfe3;stroke-opacity:1;stroke-width:1;stroke-linecap:butt;stroke-linejoin:miter;stroke-miterlimit:4;stroke-dasharray:none"
         id="path4145" /></g></g></svg>