<?xml version="1.0" encoding="UTF-8"?>
<svg id="Layer_1" data-name="Layer 1" xmlns="http://www.w3.org/2000/svg" xmlns:xlink="http://www.w3.org/1999/xlink" viewBox="0 0 432.19 984.75">
      <style>
 #Botal{animation: l2 6s  linear infinite;
transform-origin:50% 50%;
transform-box:fill-box;}
  @keyframes l2 {
      0% {transform: translate(0px, -110px);opacity:1;}      
     
      30% {transform: translate(0px, -110px); opacity:1;}
      40% {transform: translate(0px, 55px); opacity:1;}     
      80% {transform: translate(0px, 55px); opacity:1;} 
      
      100% {transform: translate(0px, -110px);opacity:1;}      
    }


 </style>
  
  <defs>
    <clipPath id="clippath">
      <path d="M277.92,783.25c-.39,4.47-1.66,12.16-6.52,20.06-3.87,6.3-8.33,9.98-10.7,11.9-9.86,8-29.54,17.58-54.09,16.55-30.46-1.28-50.24-18.13-55.56-23.78-7.16-7.6-9.57-15.77-9.57-15.77-1.03-3.48-1.33-6.51-1.41-8.62-32.19-49.72-64.38-99.44-96.56-149.16l7.11-401.78L59.5,12.2h320l-23.11,648.89c-26.16,40.72-52.31,81.44-78.47,122.16Z" style="fill: none; stroke-width: 0px;"/>
    </clipPath>
    <clipPath id="clippath-1">
      <path d="M100.45,599.49c.07-3.56.3-6.33.64-9.97.26-2.81.62-6.62,1.41-11.51.14-.86,1.01-6.18,2.24-11.11,1.24-4.96,3.76-13.14,9.11-23.42V207.07c.41-3.04,1.44-8.2,4.46-13.68,4-7.26,9.37-11.22,12.22-13.28,38.35-27.69,79.32-27.16,79.32-27.16,0,0,31.42.4,69.62,22.13,10.34,5.88,17.51,12.19,21.85,21.26,1.97,4.13,2.89,7.85,3.36,10.33-.26,111.47-.52,222.94-.78,334.41,3.34,8.44,6.68,18.69,9.11,30.56,2.04,9.97,3.04,19.09,3.45,27.02-.02,20.63-.5,33.49-.98,41.63-.38,6.52-.8,10.68-.77,18.15.04,9.48.74,10.71-.13,15.12-1.7,8.57-6.45,14.51-8.99,17.61-3,3.67-6.72,6.62-14.15,12.53-4.83,3.84-7.24,5.75-9.98,7.67-4.42,3.1-6.65,4.28-9.46,7.41-1.17,1.31-3.19,3.6-4.6,6.9-1.94,4.53-1.62,8.39-1.44,12.62.01.34-.05,6.88-.19,19.94-.1,9.18-.69,16.07-1.05,20.14-.99,11.16-1.53,16.85-3.84,22.53-.21.51-3.03,7.34-8.46,13.57-10.19,11.71-27.35,18.81-44.47,18.26-20.23-.65-40.96-12.02-48.84-28.7-3.7-7.83-5.12-18.02-5.37-19.82-1.01-7.26-.91-13.84-.77-23.14.05-3.39.19-8.07.26-16.36.06-8.19-.03-9.25-.26-10.61-.53-3.23-1.81-10.47-7.42-16.11-1.02-1.02-.99-.8-5.88-4.44,0,0-4.26-3.18-11.38-8.85-11.33-9.04-16.78-13.83-18.92-17.39-2.92-4.85-3.66-8.95-4.99-16.32-1.74-9.69-.62-12.08-1.15-27.15-.35-9.86-1.37-24.52-2.3-33.64-.21-2.02-.61-5.73-.51-10.74l.03.02Z" style="fill: none; stroke-width: 0px;"/>
    </clipPath>
    <clipPath id="clippath-2">
      <rect x="21.47" width="410.72" height="873.32" style="fill: none; stroke-width: 0px;"/>
    </clipPath>
    <linearGradient id="linear-gradient" x1="98.4" y1="506.34" x2="318.46" y2="506.34" gradientTransform="translate(0 999.2) scale(1 -1)" gradientUnits="userSpaceOnUse">
      <stop offset="0" stop-color="#145500"/>
      <stop offset=".03" stop-color="#397028"/>
      <stop offset=".07" stop-color="#6a935d"/>
      <stop offset=".12" stop-color="#94b28b"/>
      <stop offset=".16" stop-color="#b7cab0"/>
      <stop offset=".2" stop-color="#d1decd"/>
      <stop offset=".24" stop-color="#e4ebe2"/>
      <stop offset=".28" stop-color="#f0f4ee"/>
      <stop offset=".32" stop-color="#f4f7f3"/>
      <stop offset=".65" stop-color="#f0f4ef"/>
      <stop offset=".72" stop-color="#eff3ed"/>
      <stop offset=".75" stop-color="#e3eae0"/>
      <stop offset=".8" stop-color="#c3d3be"/>
      <stop offset=".87" stop-color="#90ae86"/>
      <stop offset=".95" stop-color="#4b7c3b"/>
      <stop offset=".98" stop-color="#30691e"/>
    </linearGradient>
  </defs>
  <g>
    <path d="M2,786.47c-.26,1.72-1.35,12.61-.57,26.44.24,4.24.99,16.76,4.22,29.33,5.8,22.54,17.74,38.06,24.67,46.89,22.75,29,51.26,43.63,67.56,50.44.21,2.41.54,6.03,1.04,10.44,1.06,9.44,1.59,14.17,2.37,16.74.99,3.26,4.81,11.93,24.93,17.98h165.43c22.22-7.56,25.36-16.6,26.02-19.83.41-2,.59-5.6.96-12.81.29-5.63.4-10.25.44-13.33,14.34-5.34,42.37-18.13,65.48-46.74,3.52-4.36,37.65-47.92,33.26-106.96-.43-5.8-.65-8.69-1.33-11.04-23.63-80.63-407.78-31.32-414.46,12.44Z" style="fill: #001629; stroke-width: 0px;"/>
    <g>
      <rect x="188.09" y="206.77" width="42.63" height="176.59" style="fill: #151514; stroke-width: 0px;"/>
      <path d="M230.72,384.36h-42.63c-.55,0-1-.45-1-1v-176.59c0-.55.45-1,1-1h42.63c.55,0,1,.45,1,1v176.59c0,.55-.45,1-1,1ZM189.09,382.36h40.63v-174.59h-40.63v174.59Z" style="stroke-width: 0px;"/>
    </g>
    <path d="M2.08,780.58c-.24-6.47.14-11.39.24-12.64.71-9.61.44-19.27.73-28.9.98-33.46,1.57-53.45,1.94-64.13,1.48-42.15,3.93-61.05,8.22-125.22,1.36-20.3,3.22-49.81,5.05-85.88,0-2.5.12-5.88.58-9.86.43-3.74.95-8.29,2.7-13.48,1.56-4.64,3.42-7.72,5.84-11.72,2.1-3.45,6.09-9.94,12.76-17.06,3.49-3.73,10.96-11.08,22.32-17.66,14.37-8.33,32.72-14.12,55.11-21.19,1.2-.38,3.5-1.1,6.07-2.81,5.28-3.52,6.53-7.79,9.33-10.96,2.62-2.96,7.6-6.12,18.07-6.22,39.95-.2,79.9-.4,119.85-.59,8.12.6,12.4,3.38,14.81,5.78,3.07,3.05,3.4,5.79,7.04,9.56,3.65,3.78,7.82,5.67,10.67,6.67,17.43,3.43,39.36,10.38,60.44,24.67,20.25,13.72,26.75,25.44,29.11,30.22,3.69,7.5,5.26,14.37,6,19.11,11.51,184.22,18.43,319.63,16.89,334.89-.76,7.54-2.44,14.61-2.44,14.61-2.69,11.3-6.62,19.82-8.89,24.27-5.5,10.79-11.29,17.53-18.52,25.93-12.43,14.45-23.77,23.35-27.04,25.85-9.23,7.09-18.48,12.68-23.25,15.06-2.35,1.18-4.66,2.44-7.02,3.59-3.14,1.52-5.08,2.36-7.73,4.16-1.82,1.24-2.82,1.93-3.85,3.19-2.01,2.44-2.61,5.16-2.81,6.81.11,10.9.2,14.97.27,16.08,0,.15.04.68.02,1.4,0,0-.04,1.31-.3,2.59-1.08,5.34-7.78,10-7.78,10-5.2,3.62-10.86,5.28-14.15,5.78-11.34,1.71-76.1,1.9-164.74,0-3.25-.42-15.63-2.4-21.04-11.85-3.02-5.28-3.49-12.24-3.56-13.33-.4-6.72,1.47-9.39-.15-13.56-1.15-2.97-3.8-5.97-9.33-8.37-9.33-4.24-21.93-10.81-35.56-20.74-10.17-7.41-18.96-13.81-28.15-25.04,0,0-14.98-18.3-24.64-49.86-1.84-6.01-2.56-11.47-2.56-11.47-.08-.63-.43-3.34-.59-7.66Z" style="fill: #01a8d6; stroke-width: 0px;"/>
    <path d="M237.13,945.83c-29.08,0-67.17-.45-109.53-1.36-.07,0-.14,0-.21-.02-4.93-.64-16.99-3.17-22.52-12.84-3.07-5.38-3.7-12.23-3.82-14.21-.18-3.05.08-5.34.29-7.18.26-2.31.44-3.84-.31-5.76-1.14-2.94-3.92-5.38-8.26-7.26-12.66-5.75-24.74-12.8-35.94-20.96-10.29-7.49-19.17-13.96-28.52-25.39-.62-.76-15.34-18.97-25.01-50.54-1.87-6.1-2.6-11.57-2.63-11.8-.29-2.17-.5-4.96-.61-7.85H.08c-.16-4.27-.08-8.57.23-12.77.46-6.17.51-12.41.56-18.44.03-3.42.06-6.97.16-10.46l.05-1.62c.95-32.43,1.53-52.01,1.9-62.52.94-26.67,2.23-43.67,4.19-69.41,1.15-15.12,2.46-32.26,4.04-55.88,1.89-28.2,3.58-57.08,5.05-85.85,0-3.25.21-6.64.59-9.99.44-3.79.98-8.5,2.8-13.89,1.67-4.94,3.69-8.27,6.03-12.12,1.97-3.24,6.06-9.97,13.01-17.39,6.48-6.91,14.36-13.15,22.78-18.03,14.56-8.44,32.63-14.14,55.5-21.36,1.17-.37,3.26-1.03,5.58-2.58,3.17-2.12,4.75-4.55,6.27-6.91.81-1.25,1.64-2.54,2.68-3.72,3.97-4.49,10.55-6.81,19.55-6.9l119.86-.59c.06.01.11,0,.16,0,6.95.51,12.36,2.65,16.08,6.35,1.67,1.66,2.62,3.25,3.54,4.78.94,1.56,1.82,3.04,3.53,4.8,2.6,2.69,5.88,4.75,9.76,6.12,22.71,4.49,43.24,12.88,61.04,24.95,14.46,9.8,24.48,20.23,29.78,30.99,3.02,6.14,5.1,12.76,6.18,19.69,0,.06.02.12.02.18,11.78,188.54,18.41,320.12,16.88,335.21-.77,7.59-2.42,14.58-2.49,14.88-2.02,8.52-5.16,17.07-9.06,24.72-5.61,11-11.42,17.76-18.78,26.32-11.36,13.2-22,22.04-27.34,26.14-8.98,6.89-18.31,12.63-23.57,15.26-1.01.51-2.02,1.03-3.02,1.55-1.33.7-2.67,1.39-4.03,2.05l-1.39.67c-2.31,1.11-3.97,1.91-6.09,3.35-1.78,1.21-2.6,1.79-3.43,2.8-1.27,1.54-2.06,3.45-2.36,5.66.1,9.19.19,14.52.27,15.84.04.62.04,1.21.03,1.58,0,.06-.05,1.5-.33,2.93-1.22,6.06-8.3,11.04-8.6,11.25-6.57,4.56-13.13,5.83-14.99,6.11-6.09.92-26.24,1.38-55.55,1.38ZM127.8,940.47c94.57,2.02,154.23,1.54,164.29.02,3.38-.51,8.65-2.21,13.31-5.44,1.68-1.17,6.21-5.04,6.96-8.75.22-1.09.26-2.25.26-2.26,0-.29.01-.73-.02-1.21-.09-1.42-.18-6.71-.28-16.19,0-.09,0-.18.02-.27.38-3.04,1.47-5.67,3.26-7.84,1.23-1.5,2.44-2.32,4.27-3.57,2.37-1.61,4.24-2.51,6.61-3.65l1.37-.66c1.32-.64,2.62-1.32,3.92-2,1.02-.53,2.05-1.07,3.08-1.58,5.09-2.54,14.15-8.12,22.92-14.86,5.21-4,15.62-12.64,26.74-25.57,7.19-8.36,12.87-14.96,18.25-25.53,3.76-7.37,6.78-15.61,8.73-23.83.02-.07,1.66-7.04,2.4-14.35,1.5-14.89-5.13-146.18-16.89-334.47-1.02-6.49-2.97-12.7-5.8-18.44-4.99-10.14-14.56-20.04-28.44-29.45-17.39-11.78-37.48-19.98-59.71-24.36-.09-.02-.18-.04-.27-.07-4.53-1.58-8.38-3.99-11.45-7.17-2.02-2.1-3.12-3.92-4.08-5.53-.86-1.44-1.61-2.69-2.93-4-3.01-3-7.55-4.75-13.47-5.2h-.51s-119.27.59-119.27.59c-7.82.07-13.4,1.94-16.58,5.55-.84.95-1.56,2.06-2.32,3.24-1.66,2.57-3.54,5.49-7.41,8.07-2.79,1.86-5.23,2.63-6.54,3.05-22.69,7.16-40.57,12.8-54.75,21.02-8.09,4.69-15.65,10.67-21.86,17.3-6.67,7.12-10.62,13.61-12.51,16.73-2.31,3.8-4.13,6.8-5.66,11.32-1.68,4.99-2.2,9.47-2.61,13.07-.37,3.2-.56,6.44-.57,9.64-1.46,28.88-3.16,57.79-5.05,86.01-1.58,23.64-2.89,40.78-4.04,55.91-1.96,25.69-3.25,42.66-4.18,69.25-.37,10.5-.94,30.07-1.9,62.5l-.05,1.62c-.1,3.45-.13,6.97-.16,10.37-.05,6.1-.11,12.4-.57,18.61-.31,4.14-.38,8.29-.23,12.42h0c.14,3.74.42,6.29.57,7.47,0,.05.73,5.38,2.49,11.15,9.42,30.77,24.13,49,24.28,49.18,9.03,11.03,17.71,17.36,27.78,24.68,10.99,8,22.83,14.91,35.21,20.54,5.33,2.31,8.83,5.5,10.37,9.46,1.11,2.84.85,5.08.55,7.67-.2,1.78-.43,3.79-.27,6.49.08,1.25.58,7.72,3.3,12.46,4.6,8.05,15.05,10.26,19.45,10.85Z" style="fill: #001e31; stroke-width: 0px;"/>
    <path d="M61.97,403.21c16.32-11.71,42.44-21.63,65.62-26.52,15.99-3.37,38.01-3.48,81.4-3.56,37.79-.07,56.94-.06,69.02,1.78,8.71,1.33,54.01,8.76,80.08,28,33.43,24.67,29.79,64.76,37.75,191.7,9.97,158.95,22.3,202.02-12.98,246.07-22.02,27.5-51.97,42.11-60.61,46.22-41.36,19.69-79.31,18.35-120.78,16.89-27.94-.99-51.03-1.8-80.15-11.74-9.67-3.3-58.97-20.13-87.53-56.26-25.22-31.9-21.8-63.06-16.37-175.11,8.86-182.83,6.07-229.88,44.54-257.48Z" style="fill: #0075bb; stroke-width: 0px;"/>
    <path d="M80.96,415.95c14.43-10.84,37.53-20.02,58.02-24.55,14.14-3.12,33.61-3.22,71.98-3.29,33.42-.06,50.34-.06,61.02,1.65,7.7,1.23,47.76,8.11,70.8,25.92,29.56,22.84,26.34,59.95,33.38,177.44,8.81,147.12,19.72,186.99-11.47,227.77-19.47,25.46-45.95,38.97-53.59,42.78-36.57,18.23-70.12,16.99-106.79,15.63-24.71-.91-45.12-1.67-70.86-10.87-8.55-3.06-52.14-18.63-77.39-52.07-22.3-29.52-19.28-58.36-14.47-162.08,7.84-169.23,5.37-212.77,39.38-238.32Z" style="fill: #004a6e; stroke-width: 0px;"/>
    <path d="M79.44,698.36l12.83-208.07c.1-1.65,1.46-2.94,3.09-2.93l227.63,1.18c1.63,0,2.97,1.3,3.06,2.96l11.05,207.01c.1,1.79-1.31,3.29-3.07,3.29l-251.51-.05c-1.8,0-3.22-1.57-3.07-3.39h0Z" style="fill: #005632; stroke-width: 0px;"/>
    <ellipse cx="85.09" cy="728.97" rx="19" ry="14.5" style="fill: #01a8dd; stroke-width: 0px;"/>
    <ellipse cx="333.98" cy="729.43" rx="19" ry="14.5" style="fill: #01a8dd; stroke-width: 0px;"/>
    <ellipse cx="208.91" cy="443.71" rx="16.52" ry="10.83" style="fill: #01a8dd; stroke-width: 0px;"/>
    <ellipse cx="186.13" cy="453.79" rx="7.15" ry="4.69" style="fill: #01a8dd; stroke-width: 0px;"/>
    <ellipse cx="168.24" cy="453.79" rx="7.15" ry="4.69" style="fill: #01a8dd; stroke-width: 0px;"/>
    <ellipse cx="150.35" cy="453.79" rx="7.15" ry="4.69" style="fill: #01a8dd; stroke-width: 0px;"/>
    <ellipse cx="132.46" cy="453.79" rx="7.15" ry="4.69" style="fill: #01a8dd; stroke-width: 0px;"/>
    <ellipse cx="101.8" cy="466.67" rx="7.15" ry="4.69" style="fill: #01a8dd; stroke-width: 0px;"/>
    <ellipse cx="143.2" cy="468.67" rx="7.15" ry="4.69" style="fill: #01a8dd; stroke-width: 0px;"/>
    <ellipse cx="208.91" cy="466.67" rx="7.15" ry="4.69" style="fill: #01a8dd; stroke-width: 0px;"/>
    <ellipse cx="287.57" cy="463.99" rx="7.15" ry="4.69" style="fill: #01a8dd; stroke-width: 0px;"/>
    <ellipse cx="349.43" cy="530.14" rx="7.15" ry="4.69" style="fill: #01a8dd; stroke-width: 0px;"/>
    <path d="M349.43,535.62c-4.22,0-7.65-2.33-7.65-5.19s3.43-5.19,7.65-5.19,7.65,2.33,7.65,5.19-3.43,5.19-7.65,5.19ZM349.43,526.24c-3.67,0-6.65,1.88-6.65,4.19s2.98,4.19,6.65,4.19,6.65-1.88,6.65-4.19-2.98-4.19-6.65-4.19Z" style="fill: #01a8dd; stroke-width: 0px;"/>
    <polygon points="341.54 554.91 347.2 622.03 355.83 622.03 350.54 554.91 341.54 554.91" style="fill: #01a8dd; stroke-width: 0px;"/>
    <rect x="341.54" y="638.84" width="13.52" height="6.75" style="fill: #01a8dd; stroke-width: 0px;"/>
    <rect x="342.76" y="654.17" width="13.07" height="7.56" style="fill: #01a8dd; stroke-width: 0px;"/>
    <rect x="343.35" y="670.77" width="12.48" height="7.11" style="fill: #01a8dd; stroke-width: 0px;"/>
    <polygon points="48.43 546.62 83.43 546.62 83.43 533.69 48.43 533.25 48.43 546.62" style="fill: #01a8dd; stroke-width: 0px;"/>
    <path d="M84.09,528.14h-24.56c-3.22-.44-5.62-3.24-5.56-6.44.06-3.11,2.42-5.77,5.56-6.2h25.22l-.67,12.65Z" style="fill: #01a8dd; stroke-width: 0px;"/>
    <g>
      <ellipse cx="288.24" cy="497.47" rx="7.15" ry="4.69" style="fill: #66a47a; stroke-width: 0px;"/>
      <ellipse cx="306.32" cy="583.1" rx="7.15" ry="4.69" style="fill: #66a47a; stroke-width: 0px;"/>
      <ellipse cx="237.87" cy="540.73" rx="7.15" ry="4.69" style="fill: #66a47a; stroke-width: 0px;"/>
      <ellipse cx="161.09" cy="510.8" rx="7.15" ry="4.69" style="fill: #66a47a; stroke-width: 0px;"/>
      <ellipse cx="127.32" cy="532.28" rx="7.15" ry="5.23" style="fill: #66a47a; stroke-width: 0px;"/>
      <ellipse cx="132.46" cy="671.15" rx="7.15" ry="6.32" style="fill: #66a47a; stroke-width: 0px;"/>
      <ellipse cx="247.72" cy="649.52" rx="7.15" ry="6.32" style="fill: #66a47a; stroke-width: 0px;"/>
      <rect x="93.13" y="585.29" width="26.22" height="6.07" style="fill: #66a47a; stroke-width: 0px;"/>
      <rect x="92.02" y="598.84" width="26.22" height="6.07" style="fill: #66a47a; stroke-width: 0px;"/>
      <rect x="91.35" y="612.4" width="26.22" height="6.07" style="fill: #66a47a; stroke-width: 0px;"/>
      <rect x="90.61" y="626.25" width="26.22" height="6.07" style="fill: #66a47a; stroke-width: 0px;"/>
      <rect x="89.72" y="640.4" width="26.22" height="6.07" style="fill: #66a47a; stroke-width: 0px;"/>
      <rect x="88.98" y="654.54" width="26.22" height="6.07" style="fill: #66a47a; stroke-width: 0px;"/>
      <rect x="126.2" y="497.14" width="20.33" height="4.56" style="fill: #66a47a; stroke-width: 0px;"/>
      <rect x="125.32" y="506.58" width="20.56" height="13.11" style="fill: #66a47a; stroke-width: 0px;"/>
      <rect x="143.2" y="531.14" width="65.7" height="8.22" style="fill: #66a47a; stroke-width: 0px;"/>
      <rect x="188.09" y="539.36" width="4.3" height="25.11" style="fill: #66a47a; stroke-width: 0px;"/>
      <rect x="87.94" y="546.62" width="48.43" height="6.81" style="fill: #66a47a; stroke-width: 0px;"/>
      <rect x="152.83" y="578.91" width="20.89" height="3.85" style="fill: #66a47a; stroke-width: 0px;"/>
      <rect x="152.83" y="588.32" width="20.89" height="3.63" style="fill: #66a47a; stroke-width: 0px;"/>
      <rect x="119.35" y="588.32" width="16.24" height="3.04" style="fill: #66a47a; stroke-width: 0px;"/>
      <rect x="116.83" y="597.47" width="56.89" height="3.78" style="fill: #66a47a; stroke-width: 0px;"/>
      <rect x="200.54" y="686.47" width="18.67" height="15.33" style="fill: #66a47a; stroke-width: 0px;"/>
      <rect x="271.2" y="692.25" width="14.67" height="9.56" style="fill: #66a47a; stroke-width: 0px;"/>
      <rect x="164.32" y="692.25" width="14.89" height="9.56" style="fill: #66a47a; stroke-width: 0px;"/>
      <rect x="85.09" y="690.47" width="19.37" height="11.33" style="fill: #66a47a; stroke-width: 0px;"/>
      <path d="M321.61,590.14h10.78v22.26h-10.78c-1.41,0-2.55-1.14-2.55-2.55v-17.15c0-1.41,1.14-2.55,2.55-2.55Z" transform="translate(-24.94 14.2) rotate(-2.4)" style="fill: #66a47a; stroke-width: 0px;"/>
      <polygon points="272.31 582.34 215.61 582.34 204.16 574.85 203.69 549.25 215.65 541.05 214.61 525.08 195.64 512.3 168.24 512.3 168.24 509.3 196.55 509.3 217.51 523.42 218.76 542.56 206.72 550.81 207.13 573.21 216.5 579.34 271.43 579.34 329.07 542.76 330.67 545.29 272.31 582.34" style="fill: #66a47a; stroke-width: 0px;"/>
      <polygon points="234.26 564.47 231.26 564.47 231.26 553.42 256.82 553.42 267.93 542.72 267.93 534.07 207.54 495.3 207.41 487.38 210.41 487.33 210.51 493.64 270.93 532.43 270.93 544 258.03 556.42 234.26 556.42 234.26 564.47" style="fill: #66a47a; stroke-width: 0px;"/>
      <polygon points="269.88 573.08 217.26 573.08 217.26 552.68 231.15 542.24 232.95 544.64 220.26 554.18 220.26 570.08 268.97 570.08 315.82 538.51 314 486.56 317 486.45 318.88 540.06 269.88 573.08" style="fill: #66a47a; stroke-width: 0px;"/>
      <polygon points="264.75 564.56 246.17 564.56 246.17 561.56 263.74 561.56 287.91 543.22 286.74 500.29 289.74 500.21 290.95 544.68 264.75 564.56" style="fill: #66a47a; stroke-width: 0px;"/>
      <polygon points="173.7 573.6 143.72 573.05 144.39 555.29 152.44 547.47 152.44 537.51 155.44 537.51 155.44 548.73 147.35 556.61 146.83 570.11 173.75 570.6 173.7 573.6" style="fill: #66a47a; stroke-width: 0px;"/>
      <rect x="159.5" y="561.56" width="14.22" height="3" style="fill: #66a47a; stroke-width: 0px;"/>
      <polygon points="296.94 592.04 246.17 592.04 246.17 589.04 295.99 589.04 302.64 584.36 304.36 586.81 296.94 592.04" style="fill: #66a47a; stroke-width: 0px;"/>
      <path d="M333.97,629.16l-13.96-.15c-.65,0-1.23-.44-1.42-1.06l-2.52-8.25-27.11-18.99h-42.79v-3h43.26c.31,0,.61.09.86.27l27.93,19.56c.27.19.48.47.57.79l2.35,7.69,12.86.14-.03,3Z" style="fill: #66a47a; stroke-width: 0px;"/>
      <path d="M335.65,658.79h-23.11c-.38,0-.74-.14-1.01-.4l-7.26-6.67c-.3-.27-.47-.65-.48-1.05l-.86-24.69-23.13-14.61-33.66-.73.06-3,34.07.74c.27,0,.54.09.77.23l24.15,15.26c.42.26.68.72.7,1.21l.87,24.85,6.37,5.85h22.53v3Z" style="fill: #66a47a; stroke-width: 0px;"/>
      <path d="M337.09,675.19h-25.44c-.32,0-.63-.1-.88-.29l-19.78-14.44c-.36-.26-.58-.67-.61-1.11l-1.75-26.87-16.25-12.17h-26.2v-3h26.7c.32,0,.64.11.9.3l17.2,12.89c.35.26.57.67.6,1.1l1.75,26.86,18.82,13.74h24.96v3Z" style="fill: #66a47a; stroke-width: 0px;"/>
      <path d="M261.89,700.84h-3s.04-22.15.04-22.15c0-.44.2-.86.54-1.15l15.68-13.11v-26.69l-9.47-7.55h-19.51v-3h20.04c.34,0,.67.12.94.33l10.44,8.33c.36.29.56.72.56,1.17v28.11c0,.44-.2.87-.54,1.15l-15.69,13.11-.04,21.45Z" style="fill: #66a47a; stroke-width: 0px;"/>
      <path d="M301.59,701.8h-3v-15.17h-38.18v-3h39.68c.83,0,1.5.67,1.5,1.5v16.67Z" style="fill: #66a47a; stroke-width: 0px;"/>
      <path d="M250.76,640.34h-28.89c-.83,0-1.5-.67-1.5-1.5v-8.05h-17.15v8.05c0,.83-.67,1.5-1.5,1.5h-34.22v-3h32.72v-8.05c0-.83.67-1.5,1.5-1.5h20.15c.83,0,1.5.67,1.5,1.5v8.05h27.39v3Z" style="fill: #66a47a; stroke-width: 0px;"/>
      <path d="M182.46,659.08h-18.15c-.29,0-.58-.08-.82-.24l-22-14.38c-.42-.28-.68-.75-.68-1.26v-7.55c0-.45.2-.87.55-1.16l8.44-6.96c.27-.22.61-.34.95-.34h21.78v3h-21.24l-7.48,6.17v6.03l20.95,13.69h17.27l13.41-8.51c.25-.16.54-.24.83-.23l46.07.68-.04,3-45.63-.67-13.4,8.5c-.24.15-.52.23-.8.23Z" style="fill: #66a47a; stroke-width: 0px;"/>
      <path d="M114.57,616.93l-.21-2.99,9.22-.65,12.35-5.52c.18-.08.38-.13.58-.13l36-.74.06,3-35.7.73-12.32,5.51c-.16.07-.33.12-.51.13l-9.48.67Z" style="fill: #66a47a; stroke-width: 0px;"/>
      <path d="M129.28,630.79h-14.81v-3h14.32l13.83-10.19c.26-.19.57-.29.89-.29h29.04v3h-28.54l-13.83,10.19c-.26.19-.57.29-.89.29Z" style="fill: #66a47a; stroke-width: 0px;"/>
      <path d="M133.96,667.14h-3v-14.51l-9.74-7.99h-7.13v-3h7.67c.35,0,.68.12.95.34l10.7,8.78c.35.29.55.71.55,1.16v15.22Z" style="fill: #66a47a; stroke-width: 0px;"/>
      <path d="M210.63,687.69h-3v-15.5l-70.42.11v-3s71.92-.11,71.92-.11h0c.4,0,.78.16,1.06.44.28.28.44.66.44,1.06v17Z" style="fill: #66a47a; stroke-width: 0px;"/>
      <path d="M156.15,701.8h-3v-15.39h-25.11v15.39h-3v-16.89c0-.83.67-1.5,1.5-1.5h28.11c.83,0,1.5.67,1.5,1.5v16.89Z" style="fill: #66a47a; stroke-width: 0px;"/>
      <rect x="134.43" y="691.69" width="11.56" height="10.11" style="fill: #66a47a; stroke-width: 0px;"/>
      <path d="M91.23,532.65c-.29,0-.57,0-.86-.02l.13-3c4.24.18,8.33-1.27,10.91-3.87,1.37-1.39,2.15-2.97,2.09-4.23-.06-1.19-.89-2.56-2.26-3.77-2.62-2.29-6.61-3.46-10.68-3.15l-.24-2.99c4.94-.39,9.63,1.02,12.89,3.88,2.01,1.76,3.17,3.85,3.28,5.87.11,2.12-.97,4.49-2.95,6.49-3.03,3.06-7.47,4.77-12.3,4.77Z" style="fill: #66a47a; stroke-width: 0px;"/>
      <rect x="126.2" y="487.36" width="20.22" height="4.22" style="fill: #66a47a; stroke-width: 0px;"/>
    </g>
    <rect x="99.72" y="436.98" width="4.74" height="27.01" style="fill: #01a8dd; stroke-width: 0px;"/>
    <rect x="140.59" y="466.67" width="4.74" height="22.8" style="fill: #01a8dd; stroke-width: 0px;"/>
    <rect x="206.68" y="466.67" width="4.74" height="22.8" style="fill: #01a8dd; stroke-width: 0px;"/>
    <rect x="301.6" y="459.76" width="4" height="36.3" transform="translate(-254.97 385.34) rotate(-48.16)" style="fill: #01a8dd; stroke-width: 0px;"/>
    <path d="M328.61,539.74c4.79-2.98,9.58-5.96,14.37-8.94l5.7,3.65c-5.98,4.32-11.95,8.64-17.93,12.96" style="fill: #01a8dd; stroke-width: 0px;"/>
    <path d="M334.01,704.8l-251.51-.05c-1.69,0-3.31-.72-4.46-1.96-1.15-1.25-1.73-2.94-1.6-4.64l12.83-208.04c.2-3.23,2.86-5.75,6.07-5.75h.03l227.63,1.18c3.21.02,5.87,2.56,6.04,5.8l11.05,207.01c.09,1.68-.52,3.34-1.67,4.56-1.14,1.2-2.74,1.89-4.4,1.89ZM95.34,490.36s-.07.03-.08.12l-12.83,208.14s0,.07.04.12l251.55.08c.08-.07.08-.12.08-.13l-11.05-207.01c0-.08-.06-.12-.08-.12l-227.63-1.18h0Z" style="fill: #002d41; stroke-width: 0px;"/>
    <polygon points="141.7 735.8 132.7 735.5 133.52 702.34 142.52 702.65 141.7 735.8" style="fill: #01a8dd; stroke-width: 0px;"/>
    <polygon points="307.7 764.02 298.71 763.58 299.93 738.7 269.07 715.38 269.07 702.92 278.07 702.92 278.07 710.9 309.15 734.39 307.7 764.02" style="fill: #01a8dd; stroke-width: 0px;"/>
    <g>
      <ellipse cx="209.13" cy="784.54" rx="102.22" ry="73.78" style="fill: #f2f0f0; stroke-width: 0px;"/>
      <path d="M209.13,860.32c-57.47,0-104.22-33.99-104.22-75.78s46.75-75.78,104.22-75.78,104.22,33.99,104.22,75.78-46.75,75.78-104.22,75.78ZM209.13,712.77c-55.26,0-100.22,32.2-100.22,71.78s44.96,71.78,100.22,71.78,100.22-32.2,100.22-71.78-44.96-71.78-100.22-71.78Z" style="fill: #1f2426; stroke-width: 0px;"/>
    </g>
    <g>
      <ellipse cx="208.98" cy="781.88" rx="70.96" ry="52.44" style="fill: #efeded; stroke-width: 0px;"/>
      <path d="M208.98,836.32c-40.23,0-72.96-24.42-72.96-54.44s32.73-54.44,72.96-54.44,72.96,24.42,72.96,54.44-32.73,54.44-72.96,54.44ZM208.98,731.43c-38.03,0-68.96,22.63-68.96,50.44s30.94,50.44,68.96,50.44,68.96-22.63,68.96-50.44-30.94-50.44-68.96-50.44Z" style="fill: #1f2426; stroke-width: 0px;"/>
    </g>
    <path d="M156.32,439.58c-15.74-.07-31.48-.11-47.22-.11-15.75,0-31.5.03-47.26.1.49-1.12,1.18-2.6,2.11-4.29,0,0,.65-1.19,1.77-2.95.6-.94,2.33-3.61,4.59-6.35,3.38-4.1,6.73-6.88,8.92-8.69,2.59-2.13,6.09-4.73,10.54-7.3h0c.09-.06,11.27-6.94,30.46-13.37,2.99-1,6.07-1.92,6.07-1.92,5.04-1.5,8.83-2.41,10.01-2.68,1.66-.39,3.16-.74,5.24-1.14,3.18-.6,5.87-.94,7.82-1.15-1.76,5.31-4.76,16.9-1.49,30.84,2.01,8.56,5.66,14.97,8.44,19Z" style="fill: #017fb0; stroke-width: 0px;"/>
    <path d="M173.31,388.4c.04,2.76.08,5.53.11,8.29h11.26v4.74h-11.26l-.89,36.15h17.48c2-1.85,5.93-4.97,11.63-6.33,7.86-1.88,20.23-.71,24.44,7.67,2.36,4.69,1.26,9.86.22,12.89h15.85v-12.22h118.64c-.67-1.85-2.67-7.15-5.01-10.3-.45-.6-1.91-2.47-3.53-4.43-.72-.87-1.09-1.3-1.25-1.48,0,0-1.59-1.82-3.39-3.55-22.14-21.31-66.36-28.69-66.36-28.69-14.98-2.5-30.84-2.71-61.94-3.03-19.03-.2-34.86.04-46,.3Z" style="fill: #017fb0; stroke-width: 0px;"/>
    <g style="opacity: .76;">
      <rect x="106.49" y="404.69" width="200.42" height="28.19" rx="6.67" ry="6.67" style="fill: #007092; stroke-width: 0px;"/>
      <path d="M300.24,433.88H113.15c-4.23,0-7.67-3.44-7.67-7.67v-14.85c0-4.23,3.44-7.67,7.67-7.67h187.09c4.23,0,7.67,3.44,7.67,7.67v14.85c0,4.23-3.44,7.67-7.67,7.67ZM113.15,405.69c-3.12,0-5.67,2.54-5.67,5.67v14.85c0,3.12,2.54,5.67,5.67,5.67h187.09c3.12,0,5.67-2.54,5.67-5.67v-14.85c0-3.12-2.54-5.67-5.67-5.67H113.15Z" style="fill: #1f2426; stroke-width: 0px;"/>
    </g>
    <g>
      <path d="M297.43,416.55l-5.35.21c-.12-.53-.35-.94-.71-1.22-.58-.45-1.41-.68-2.48-.68-.8,0-1.42.12-1.86.35-.43.23-.65.5-.65.8s.21.55.62.78c.41.23,1.37.44,2.88.65,2.46.34,4.22.79,5.27,1.36,1.06.56,1.59,1.28,1.59,2.16,0,.57-.27,1.12-.81,1.63-.54.51-1.36.91-2.45,1.2s-2.58.44-4.47.44c-2.32,0-4.1-.26-5.32-.8-1.22-.53-1.95-1.37-2.18-2.53l5.3-.19c.14.5.44.87.89,1.1.45.23,1.07.34,1.87.34.65,0,1.15-.08,1.48-.25s.5-.38.5-.62c0-.18-.14-.34-.41-.48-.26-.15-.89-.28-1.89-.41-2.46-.33-4.22-.65-5.28-.99-1.06-.33-1.84-.75-2.32-1.24-.48-.49-.73-1.04-.73-1.65,0-.72.32-1.38.97-1.98s1.55-1.06,2.71-1.37c1.16-.31,2.62-.47,4.38-.47,3.09,0,5.24.37,6.43,1.1,1.19.73,1.87,1.66,2.02,2.79Z" style="fill: #fff; stroke-width: 0px;"/>
      <path d="M278.12,424.02h-9.34c-2.04,0-3.56-.3-4.57-.89s-1.52-1.44-1.52-2.54.55-2.01,1.66-2.64,2.79-.95,5.06-.95h3.08v-4.14h5.65v11.16ZM272.48,419.26h-1.38c-1.08,0-1.84.12-2.28.35-.44.23-.66.53-.66.89s.19.65.57.89c.38.24,1.1.37,2.15.37h1.6v-2.49Z" style="fill: #fff; stroke-width: 0px;"/>
      <path d="M260.45,418.43c0,1.82-.83,3.24-2.48,4.26-1.66,1.01-3.96,1.52-6.91,1.52s-5.36-.5-7-1.5c-1.64-1-2.46-2.4-2.46-4.19,0-1.3.36-2.38,1.07-3.21s1.75-1.49,3.1-1.95c1.35-.46,3.04-.7,5.06-.7s3.75.2,5.09.6c1.34.4,2.43,1.04,3.27,1.9s1.25,1.95,1.25,3.26ZM254.83,418.42c0-1.13-.34-1.94-1.02-2.43s-1.61-.74-2.79-.74-2.14.24-2.8.72c-.66.48-.99,1.35-.99,2.6,0,1.05.35,1.82,1.04,2.3.69.48,1.63.73,2.81.73s2.04-.25,2.73-.74,1.03-1.31,1.03-2.44Z" style="fill: #fff; stroke-width: 0px;"/>
      <path d="M238.5,412.86v11.16h-9.37c-1.74,0-3.07-.09-3.98-.27-.92-.18-1.66-.52-2.22-1.02-.56-.49-.84-1.1-.84-1.81,0-.62.21-1.15.65-1.6s1.02-.81,1.78-1.09c.48-.18,1.14-.33,1.97-.44-.67-.14-1.16-.27-1.46-.41-.21-.09-.51-.29-.9-.59-.39-.3-.66-.53-.79-.69l-2.72-3.24h6.35l3,3.41c.38.44.72.73,1.02.86.41.17.86.26,1.38.26h.5v-4.53h5.65ZM232.85,419.5h-2.37c-.26,0-.75.05-1.49.15-.37.05-.68.16-.91.35-.24.19-.35.4-.35.65,0,.36.19.64.56.83.37.19,1.07.29,2.1.29h2.47v-2.27Z" style="fill: #fff; stroke-width: 0px;"/>
      <path d="M220.31,424.02h-17.09v-2.76h5.73v-8.41h5.62v8.41h5.73v2.76Z" style="fill: #fff; stroke-width: 0px;"/>
    </g>
    <g>
      <path d="M177.17,412.38v9.85h-2.44v-9.85h2.44ZM177.17,424.06v1.92h-2.44v-1.92h2.44Z" style="fill: #fff; stroke-width: 0px;"/>
      <path d="M161.6,412.38v1.24c.44-.48,1.01-.84,1.71-1.09.7-.25,1.45-.38,2.26-.38,1.71,0,3.18.45,4.43,1.35,1.25.9,1.87,2.17,1.87,3.8,0,1.12-.28,2.07-.83,2.85s-1.29,1.36-2.21,1.74c-.92.38-1.95.57-3.08.57-.81,0-1.56-.12-2.25-.36s-1.26-.57-1.72-1v4.88h-2.48v-13.6h2.29ZM169.36,417.3c0-1.27-.4-2.22-1.19-2.84-.79-.62-1.71-.93-2.77-.93s-1.94.3-2.71.89c-.76.59-1.15,1.49-1.15,2.69,0,1.38.38,2.39,1.15,3.02.77.63,1.73.95,2.89.95,1.03,0,1.92-.3,2.66-.91.74-.61,1.11-1.57,1.11-2.87Z" style="fill: #fff; stroke-width: 0px;"/>
      <path d="M145.57,415.55l-2.53-.21c.42-1.05,1.18-1.84,2.28-2.38,1.1-.54,2.47-.8,4.1-.8,2.05,0,3.71.43,4.98,1.3,1.27.87,1.9,2.12,1.9,3.76s-.64,3-1.92,3.89-2.9,1.34-4.86,1.34-3.43-.44-4.69-1.32c-1.25-.88-1.88-2.15-1.88-3.81l.02-.45h10.8c-.1-1.11-.56-1.94-1.38-2.51-.82-.56-1.82-.84-2.99-.84-1.84,0-3.12.67-3.84,2.02ZM153.63,418.25h-8.08c.11.85.44,1.49.98,1.91.79.61,1.79.92,3.01.92,1.1,0,2.03-.25,2.81-.77.78-.51,1.2-1.2,1.28-2.06Z" style="fill: #fff; stroke-width: 0px;"/>
      <path d="M139.93,412.38v9.85h-2.21v-1.39c-.53.54-1.18.95-1.95,1.21s-1.65.4-2.65.4c-.77,0-1.49-.08-2.15-.25-.66-.17-1.19-.39-1.59-.67-.4-.28-.71-.63-.9-1.07-.2-.44-.3-1.11-.3-2.02v-6.06h2.44v6c0,.72.11,1.25.33,1.59s.57.59,1.04.78c.47.18,1.02.27,1.64.27,1.17,0,2.11-.24,2.81-.73s1.05-1.33,1.05-2.52v-5.39h2.44Z" style="fill: #fff; stroke-width: 0px;"/>
      <path d="M118.96,413.87l-.33-1.48c.68-.1,1.29-.15,1.83-.15.85,0,1.54.09,2.06.28.52.19.88.45,1.07.77.19.33.29.98.29,1.96v5.67h1.79v1.3h-1.79v2.44l-2.44,1v-3.44h-2.48v-1.3h2.48v-5.76c0-.53-.07-.88-.22-1.03-.21-.22-.6-.33-1.18-.33-.28,0-.64.02-1.08.07Z" style="fill: #fff; stroke-width: 0px;"/>
    </g>
    <polygon points="181.13 425.98 181.13 412.15 200.98 412.15 181.13 425.98" style="fill: #fff; stroke-width: 0px;"/>
    <g>
      <ellipse cx="131.53" cy="919.79" rx="12.89" ry="9.63" style="fill: #00243c; stroke-width: 0px;"/>
      <path d="M131.92,931.25c-7.93,0-14.39-4.99-14.39-11.13s6.46-11.13,14.39-11.13,14.39,4.99,14.39,11.13-6.46,11.13-14.39,11.13ZM131.92,911.99c-6.28,0-11.39,3.65-11.39,8.13s5.11,8.13,11.39,8.13,11.39-3.65,11.39-8.13-5.11-8.13-11.39-8.13Z" style="fill: #001629; stroke-width: 0px;"/>
    </g>
    <g>
      <ellipse cx="285.76" cy="919.79" rx="12.89" ry="9.63" style="fill: #00243c; stroke-width: 0px;"/>
      <path d="M286.14,931.25c-7.93,0-14.39-4.99-14.39-11.13s6.46-11.13,14.39-11.13,14.39,4.99,14.39,11.13-6.46,11.13-14.39,11.13ZM286.14,911.99c-6.28,0-11.39,3.65-11.39,8.13s5.11,8.13,11.39,8.13,11.39-3.65,11.39-8.13-5.11-8.13-11.39-8.13Z" style="fill: #001629; stroke-width: 0px;"/>
    </g>
    <g>
      <ellipse cx="266.05" cy="364.27" rx="9.36" ry="6.99" style="fill: #00243c; stroke-width: 0px;"/>
      <path d="M266.34,373.01c-5.99,0-10.86-3.81-10.86-8.49s4.87-8.5,10.86-8.5,10.86,3.81,10.86,8.5-4.87,8.49-10.86,8.49ZM266.34,359.02c-4.33,0-7.86,2.46-7.86,5.5s3.53,5.49,7.86,5.49,7.86-2.46,7.86-5.49-3.53-5.5-7.86-5.5Z" style="fill: #001629; stroke-width: 0px;"/>
    </g>
    <g>
      <ellipse cx="150.21" cy="364.27" rx="9.36" ry="6.99" style="fill: #00243c; stroke-width: 0px;"/>
      <path d="M150.49,373.01c-5.99,0-10.86-3.81-10.86-8.49s4.87-8.5,10.86-8.5,10.86,3.81,10.86,8.5-4.87,8.49-10.86,8.49ZM150.49,359.02c-4.33,0-7.86,2.46-7.86,5.5s3.53,5.49,7.86,5.49,7.86-2.46,7.86-5.49-3.53-5.5-7.86-5.5Z" style="fill: #001629; stroke-width: 0px;"/>
    </g>
  </g>
  <g style="clip-path: url(#clippath);">
    <g id="Botal">
      <g style="clip-path: url(#clippath-1);">
        <g>
          <g style="clip-path: url(#clippath-2);">
            <g>
              <g>
                <path d="M100.45,599.49c.07-3.56.3-6.33.64-9.97.26-2.81.62-6.62,1.41-11.51.14-.86,1.01-6.18,2.24-11.11,1.24-4.96,3.76-13.14,9.11-23.42V207.07c.41-3.04,1.44-8.2,4.46-13.68,4-7.26,9.37-11.22,12.22-13.28,38.35-27.69,79.32-27.16,79.32-27.16,0,0,31.42.4,69.62,22.13,10.34,5.88,17.51,12.19,21.85,21.26,1.97,4.13,2.89,7.85,3.36,10.33-.26,111.47-.52,222.94-.78,334.41,3.34,8.44,6.68,18.69,9.11,30.56,2.04,9.97,3.04,19.09,3.45,27.02-.02,20.63-.5,33.49-.98,41.63-.38,6.52-.8,10.68-.77,18.15.04,9.48.74,10.71-.13,15.12-1.7,8.57-6.45,14.51-8.99,17.61-3,3.67-6.72,6.62-14.15,12.53-4.83,3.84-7.24,5.75-9.98,7.67-4.42,3.1-6.65,4.28-9.46,7.41-1.17,1.31-3.19,3.6-4.6,6.9-1.94,4.53-1.62,8.39-1.44,12.62.01.34-.05,6.88-.19,19.94-.1,9.18-.69,16.07-1.05,20.14-.99,11.16-1.53,16.85-3.84,22.53-.21.51-3.03,7.34-8.46,13.57-10.19,11.71-27.35,18.81-44.47,18.26-20.23-.65-40.96-12.02-48.84-28.7-3.7-7.83-5.12-18.02-5.37-19.82-1.01-7.26-.91-13.84-.77-23.14.05-3.39.19-8.07.26-16.36.06-8.19-.03-9.25-.26-10.61-.53-3.23-1.81-10.47-7.42-16.11-1.02-1.02-.99-.8-5.88-4.44,0,0-4.26-3.18-11.38-8.85-11.33-9.04-16.78-13.83-18.92-17.39-2.92-4.85-3.66-8.95-4.99-16.32-1.74-9.69-.62-12.08-1.15-27.15-.35-9.86-1.37-24.52-2.3-33.64-.21-2.02-.61-5.73-.51-10.74l.03.02Z" style="fill: #d7dfe0; stroke-width: 0px;"/>
                <path d="M107.82,603.07l2,53.23c.01.68.14,1.97.95,3.26,1.59,2.54,4.47,2.95,4.92,3.01,23.74,5.39,54.12,10.11,89.51,10.35,37.95.26,70.34-4.71,95.19-10.35.53-.16,2.16-.72,3.35-2.37.94-1.32,1.12-2.65,1.16-3.24.39-18.57.79-37.14,1.18-55.7-26.82-5.11-60.28-9.23-98.79-8.91-38.88.32-72.56,5.08-99.46,10.72h0Z" style="fill: #8eb38a; stroke-width: 0px;"/>
                <g style="opacity: .47;">
                  <path d="M272.01,611.27c-3.34,0-7.24-.16-11.56-.65-8.61-.98-13.65-2.69-18.53-4.35-4.89-1.66-9.95-3.37-18.92-4.46-6.56-.79-13.64-1.03-20.48-.68-8.27.42-14.33,1.58-18.75,2.44l-5.74,1.1c-22.71,4.38-39.11,7.54-56.85,3.94-6.79-1.38-13.52-3.36-19.99-5.88l1.45-3.73c6.26,2.44,12.76,4.35,19.33,5.69,16.96,3.44,33.04.34,55.3-3.95l5.74-1.1c4.54-.87,10.75-2.07,19.3-2.5,7.06-.36,14.38-.11,21.16.71,9.38,1.13,14.64,2.92,19.72,4.64,4.9,1.66,9.52,3.23,17.7,4.16,9.72,1.11,17.28.47,20.92.17,11.26-.94,22.33-3.57,32.88-7.8l1.49,3.71c-10.93,4.38-22.38,7.1-34.04,8.08-2.16.18-5.65.47-10.14.47h0Z" style="fill: #fff; stroke-width: 0px;"/>
                </g>
                <g style="opacity: .19;">
                  <path d="M116.84,597.29v74.71c.98,4.63,3.22,11.98,8.79,19.2,11.09,14.38,27.11,17.55,31.46,18.26-7.11-7.41-15.02-18.11-18.74-32.37-2.16-8.28-1.95-14.1-1.73-35.97.09-8.65.2-22.2.23-39.21-6.67-1.54-13.34-3.08-20.01-4.63h0Z" style="fill: #4d6666; stroke-width: 0px;"/>
                </g>
                <path d="M101.62,598.42c5.68,2.11,14.59,4.98,25.78,6.57,36.7,5.23,45.9-10.62,80.96-10.02,32.3.55,38.72,14.26,72.94,11.1,14.41-1.33,26.04-4.93,33.77-7.86-.16-8.01-1-17.84-3.39-28.84-2.44-11.2-5.85-20.63-9.1-28.06-.17-111.55-.35-223.09-.52-334.64-.32-1.7-.9-4.15-2.02-6.94-2.99-7.43-7.65-11.94-9.71-13.94-14.49-14.02-45-23.11-45-23.11-16.38-4.88-24.56-7.32-36.4-7.65-23.66-.66-41.49,7.21-53.45,12.49-.6.26-10.42,4.66-21.86,12.84-9.91,7.08-13.85,11.86-16.08,17.46-1.15,2.9-1.63,5.46-1.85,7.17-.27,112.99-.54,225.98-.81,338.97-1.22,2.22-2.83,5.35-4.43,9.21-3.43,8.26-4.78,14.9-5.95,20.78-1.24,6.24-2.48,14.54-2.87,24.46h-.01Z" style="fill: #709b68; stroke-width: 0px;"/>
                <g style="opacity: .99;">
                  <path d="M103.27,597.48c.02-7.76.82-17.96,3.86-29.49,2.54-9.65,5.97-17.63,9.14-23.79l.96-338.43c.06-2.01.41-5.08,1.85-8.48,2-4.73,5.06-7.67,6.78-9.1,1.81-1.77,3.86-3.59,6.17-5.4,5.47-4.27,10.84-7.21,15.42-9.25-5.03,5.89-13.16,17.2-16.04,33.31-1.07,5.97-1.19,11.36-.93,15.88-.08,102.69-.15,205.38-.23,308.07.25,3.49.38,8.87-.54,15.29-1.45,10.12-4.64,16.74-7.56,24.06-2.74,6.86-6.33,17.05-9.3,30.38" style="fill: #568449; stroke-width: 0px;"/>
                </g>
                <path d="M137.94,226.04c-.83-2.43-1.66-4.86-2.49-7.29,6.12-3.42,13.22-6.93,21.28-10.18,8.93-3.59,17.26-6.15,24.63-7.98v8.79c-6.4,1.55-13.49,3.64-21.05,6.48-8.53,3.2-16,6.74-22.38,10.18h.01Z" style="fill: #fff; stroke-width: 0px;"/>
                <path d="M271.48,608.05c-13.02,0-21.59-2.72-30.56-5.57-8.92-2.83-18.15-5.76-32.59-6.01-15.62-.27-26.06,2.79-36.16,5.74-12.62,3.69-24.54,7.18-44.98,4.27-8.84-1.26-17.62-3.5-26.09-6.65-.61-.23-1-.82-.98-1.46.33-8.34,1.3-16.65,2.9-24.69,1.1-5.57,2.48-12.5,6.03-21.06,1.27-3.07,2.73-6.1,4.32-9.02l.81-338.59c0-.06,0-.13.01-.19.33-2.6.99-5.13,1.94-7.53,2.51-6.3,7.16-11.39,16.6-18.13,11.66-8.33,21.7-12.8,22.12-12.99,11.99-5.29,30.11-13.28,54.09-12.62,12.03.33,20.3,2.8,36.78,7.71,1.27.38,31.13,9.46,45.62,23.47,2.08,2.02,6.96,6.73,10.06,14.45.93,2.32,1.64,4.75,2.11,7.22.02.09.03.18.03.27l.52,334.33c3.92,9.02,6.97,18.46,9.06,28.06,2.08,9.55,3.23,19.35,3.43,29.12.01.63-.38,1.21-.97,1.43-11.12,4.21-22.62,6.89-34.16,7.96-3.6.33-6.9.48-9.95.48h.01ZM206.41,593.46c.65,0,1.3,0,1.97.02,14.89.25,24.33,3.25,33.45,6.15,10.77,3.42,20.95,6.65,39.32,4.96,10.93-1.01,21.82-3.5,32.38-7.4-.25-9.23-1.37-18.47-3.33-27.48-2.07-9.51-5.1-18.86-9.01-27.78-.08-.19-.13-.39-.13-.6l-.52-334.5c-.43-2.23-1.07-4.42-1.92-6.52-2.87-7.13-7.42-11.53-9.36-13.41-13.97-13.51-43.15-22.38-44.39-22.75h0c-16.23-4.84-24.37-7.27-36.01-7.59-23.3-.65-41.06,7.18-52.8,12.36-.41.18-10.18,4.53-21.59,12.69-10.32,7.38-13.6,11.9-15.55,16.8-.85,2.14-1.44,4.4-1.74,6.71l-.81,338.88c0,.25-.07.5-.19.72-1.61,2.93-3.08,5.98-4.36,9.06-3.44,8.29-4.78,15.06-5.86,20.5-1.49,7.54-2.43,15.32-2.8,23.14,7.95,2.88,16.17,4.94,24.45,6.12,19.8,2.82,31.42-.58,43.72-4.18,9.89-2.89,20.1-5.88,35.09-5.88v-.02Z" style="fill: #20582c; stroke-width: 0px;"/>
                <g>
                  <path d="M232.26,200.6v9.02c6.41,1.5,13.66,3.61,21.43,6.63,8.96,3.48,16.63,7.39,22.98,11.1.41-2.93.82-5.86,1.23-8.79-6.74-3.69-14.61-7.49-23.59-10.95-7.9-3.04-15.33-5.31-22.05-7.02h0Z" style="fill: #fff; stroke-width: 0px;"/>
                  <path d="M231.33,227.36v9.02c6.41,1.5,13.66,3.61,21.43,6.63,8.96,3.48,16.63,7.39,22.98,11.1.41-2.93.82-5.86,1.23-8.79-6.74-3.69-14.61-7.49-23.59-10.95-7.9-3.04-15.33-5.31-22.05-7.02h0Z" style="fill: #fff; stroke-width: 0px;"/>
                  <path d="M231.23,255.87l.74,8.99c5.74,1.03,12.26,2.62,19.31,5.07,8.13,2.82,15.17,6.16,21.02,9.41.12-2.95.24-5.9.36-8.85-6.2-3.19-13.41-6.41-21.55-9.21-7.17-2.46-13.86-4.19-19.88-5.41h0Z" style="fill: #fff; stroke-width: 0px;"/>
                  <path d="M228.46,282.38c.43,2.93.86,5.86,1.29,8.79,5.39.7,11.54,1.9,18.25,3.92,7.73,2.33,14.48,5.23,20.13,8.1-.09-2.9-.17-5.81-.26-8.71-5.97-2.8-12.87-5.57-20.61-7.88-6.81-2.03-13.13-3.36-18.8-4.23h0Z" style="fill: #fff; stroke-width: 0px;"/>
                  <path d="M266.72,328.74v-10.41c-5.99-2.22-12.84-4.36-20.47-6.13-5.67-1.31-11.02-2.24-15.96-2.89v8.67c5.02.9,10.45,2.09,16.19,3.7,7.56,2.12,14.32,4.57,20.24,7.05h0Z" style="fill: #fff; stroke-width: 0px;"/>
                  <path d="M265.91,354.3v-10.18c-5.45-2.26-12.34-4.42-20.47-5.44-2.77-.35-5.4-.52-7.86-.58.27,2.97.54,5.93.81,8.9,3.39.66,6.9,1.42,10.52,2.32,6.09,1.51,11.76,3.2,17,4.97h0Z" style="fill: #fff; stroke-width: 0px;"/>
                  <path d="M265.33,380.67c.15-3.35.31-6.71.46-10.06-4.24-1.95-9.56-3.97-15.84-5.44-4.48-1.04-8.6-1.61-12.22-1.9.22,3.25.45,6.51.67,9.76,3.64.53,7.63,1.3,11.9,2.43,5.73,1.51,10.76,3.36,15.03,5.2h0Z" style="fill: #fff; stroke-width: 0px;"/>
                  <path d="M264.87,406.23c.1-2.92.21-5.84.31-8.76-3.43-1.75-8.29-3.79-14.42-5.08-4.86-1.02-9.17-1.29-12.57-1.27.03,2.95.06,5.9.09,8.85,3.28.26,6.93.73,10.85,1.53,6.18,1.26,11.46,3,15.73,4.73h0Z" style="fill: #fff; stroke-width: 0px;"/>
                  <path d="M263.55,431.26c.1-2.92.21-5.84.31-8.76-3.43-1.75-8.29-3.79-14.42-5.08-4.86-1.02-9.17-1.29-12.57-1.27.03,2.95.06,5.9.09,8.85,3.28.26,6.93.73,10.85,1.53,6.18,1.26,11.46,3,15.73,4.73h0Z" style="fill: #fff; stroke-width: 0px;"/>
                  <path d="M263.55,457.94c.1-2.92.21-5.84.31-8.76-3.43-1.75-8.29-3.79-14.42-5.08-4.86-1.02-9.17-1.29-12.57-1.27.03,2.95.06,5.9.09,8.85,3.28.26,6.93.73,10.85,1.53,6.18,1.26,11.46,3,15.73,4.73h0Z" style="fill: #fff; stroke-width: 0px;"/>
                  <path d="M264.36,483.84c.1-2.92.21-5.84.31-8.76-3.43-1.75-8.29-3.79-14.42-5.08-4.86-1.02-9.17-1.29-12.57-1.27.03,2.95.06,5.9.09,8.85,3.28.26,6.93.73,10.85,1.53,6.18,1.26,11.46,3,15.73,4.73h0Z" style="fill: #fff; stroke-width: 0px;"/>
                  <path d="M262.4,509.08c-.26-3.24-.51-6.48-.77-9.71-3.92-1.27-8.4-2.48-13.38-3.41-3.57-.67-6.94-1.1-10.05-1.38-.08,3.24-.16,6.48-.24,9.72,2.91.29,5.98.69,9.18,1.23,5.59.95,10.7,2.2,15.27,3.55h0Z" style="fill: #fff; stroke-width: 0px;"/>
                  <path d="M262.59,534.43c-.26-3.24-.51-6.48-.77-9.71-3.92-1.27-8.4-2.48-13.38-3.41-3.57-.67-6.94-1.1-10.05-1.38l-.24,9.72c2.91.29,5.98.69,9.18,1.23,5.59.95,10.7,2.2,15.27,3.55h0Z" style="fill: #fff; stroke-width: 0px;"/>
                </g>
                <g>
                  <path d="M181.76,200.6c-.15,3.16-.31,6.32-.46,9.48-6.51,1.58-13.79,3.75-21.59,6.78-8.98,3.49-16.73,7.38-23.21,11.1-.49-3.14-.97-6.27-1.46-9.41,6.63-3.68,14.51-7.51,23.59-10.95,8.38-3.17,16.19-5.41,23.12-7.02v.02Z" style="fill: #fff; stroke-width: 0px;"/>
                  <path d="M181.71,227.36c.04,3.29.08,6.58.12,9.87-6.55,1.73-13.71,3.96-21.28,6.86-8.75,3.35-16.51,6.99-23.25,10.56-.41-2.99-.82-5.98-1.23-8.97,6.32-3.88,14.19-8.06,23.56-11.7,8.09-3.14,15.58-5.23,22.09-6.63h0Z" style="fill: #fff; stroke-width: 0px;"/>
                  <path d="M181.71,255.87c-.25,3-.49,5.99-.74,8.99-5.74,1.03-12.26,2.62-19.31,5.07-8.13,2.82-15.17,6.16-21.02,9.41-.12-2.95-.24-5.9-.36-8.85,6.2-3.19,13.41-6.41,21.55-9.21,7.17-2.46,13.86-4.19,19.88-5.41Z" style="fill: #fff; stroke-width: 0px;"/>
                  <path d="M184.49,282.38c-.43,2.93-.86,5.86-1.29,8.79-5.39.7-11.54,1.9-18.25,3.92-7.73,2.33-14.48,5.23-20.13,8.1.09-2.9.17-5.81.26-8.71,5.97-2.8,12.87-5.57,20.61-7.88,6.81-2.03,13.13-3.36,18.8-4.23h0Z" style="fill: #fff; stroke-width: 0px;"/>
                  <path d="M146.22,328.74v-10.41c5.99-2.22,12.84-4.36,20.47-6.13,5.67-1.31,11.02-2.24,15.96-2.89v8.67c-5.02.9-10.45,2.09-16.19,3.7-7.56,2.12-14.32,4.57-20.24,7.05h0Z" style="fill: #fff; stroke-width: 0px;"/>
                  <path d="M147.03,354.3v-10.18c5.45-2.26,12.34-4.42,20.47-5.44,2.77-.35,5.4-.52,7.86-.58-.27,2.97-.54,5.93-.81,8.9-3.39.66-6.9,1.42-10.52,2.32-6.09,1.51-11.76,3.2-17,4.97h0Z" style="fill: #fff; stroke-width: 0px;"/>
                  <path d="M147.61,380.67c-.15-3.35-.31-6.71-.46-10.06,4.24-1.95,9.56-3.97,15.84-5.44,4.48-1.04,8.6-1.61,12.22-1.9-.22,3.25-.45,6.51-.67,9.76-3.64.53-7.63,1.3-11.9,2.43-5.73,1.51-10.76,3.36-15.03,5.2h0Z" style="fill: #fff; stroke-width: 0px;"/>
                  <path d="M148.07,406.23c-.1-2.92-.21-5.84-.31-8.76,3.43-1.75,8.29-3.79,14.42-5.08,4.86-1.02,9.17-1.29,12.57-1.27l-.09,8.85c-3.28.26-6.93.73-10.85,1.53-6.18,1.26-11.46,3-15.73,4.73h0Z" style="fill: #fff; stroke-width: 0px;"/>
                  <path d="M149.39,431.26c-.1-2.92-.21-5.84-.31-8.76,3.43-1.75,8.29-3.79,14.42-5.08,4.86-1.02,9.17-1.29,12.57-1.27-.03,2.95-.06,5.9-.09,8.85-3.28.26-6.93.73-10.85,1.53-6.18,1.26-11.46,3-15.73,4.73h0Z" style="fill: #fff; stroke-width: 0px;"/>
                  <path d="M149.39,457.94c-.1-2.92-.21-5.84-.31-8.76,3.43-1.75,8.29-3.79,14.42-5.08,4.86-1.02,9.17-1.29,12.57-1.27-.03,2.95-.06,5.9-.09,8.85-3.28.26-6.93.73-10.85,1.53-6.18,1.26-11.46,3-15.73,4.73h0Z" style="fill: #fff; stroke-width: 0px;"/>
                  <path d="M148.58,483.84c-.1-2.92-.21-5.84-.31-8.76,3.43-1.75,8.29-3.79,14.42-5.08,4.86-1.02,9.17-1.29,12.57-1.27-.03,2.95-.06,5.9-.09,8.85-3.28.26-6.93.73-10.85,1.53-6.18,1.26-11.46,3-15.73,4.73h0Z" style="fill: #fff; stroke-width: 0px;"/>
                  <path d="M150.54,509.08c.26-3.24.51-6.48.77-9.71,3.92-1.27,8.4-2.48,13.38-3.41,3.57-.67,6.94-1.1,10.05-1.38.08,3.24.16,6.48.24,9.72-2.91.29-5.98.69-9.18,1.23-5.59.95-10.7,2.2-15.27,3.55h0Z" style="fill: #fff; stroke-width: 0px;"/>
                  <path d="M150.35,534.43c.26-3.24.51-6.48.77-9.71,3.92-1.27,8.4-2.48,13.38-3.41,3.57-.67,6.94-1.1,10.05-1.38l.24,9.72c-2.91.29-5.98.69-9.18,1.23-5.59.95-10.7,2.2-15.27,3.55h0Z" style="fill: #fff; stroke-width: 0px;"/>
                  <g>
                    <rect x="177.36" y="699.68" width="58.08" height="21.1" style="fill: #c7d3d3; stroke-width: 0px;"/>
                    <path d="M235.44,722.28h-58.08c-.83,0-1.5-.67-1.5-1.5v-21.1c0-.83.67-1.5,1.5-1.5h58.08c.83,0,1.5.67,1.5,1.5v21.1c0,.83-.67,1.5-1.5,1.5ZM178.86,719.28h55.08v-18.1h-55.08v18.1Z" style="fill: #bec9cc; stroke-width: 0px;"/>
                  </g>
                  <path d="M271.47,608.55c-13.08,0-21.69-2.73-30.7-5.59-8.89-2.82-18.08-5.74-32.45-5.99-15.56-.27-25.94,2.78-36.01,5.72-12.67,3.71-24.64,7.21-45.19,4.28-8.88-1.27-17.69-3.51-26.19-6.68-.81-.3-1.33-1.09-1.3-1.95.33-8.37,1.31-16.7,2.91-24.77,1.11-5.59,2.49-12.54,6.06-21.16,1.26-3.05,2.7-6.06,4.28-8.96l.81-338.47c0-.08,0-.17.02-.25.34-2.64,1-5.22,1.97-7.65,2.55-6.4,7.25-11.55,16.77-18.35,11.7-8.36,21.79-12.85,22.21-13.04,12.03-5.31,30.2-13.35,54.31-12.66,12.1.33,20.39,2.81,36.91,7.73,1.28.38,31.25,9.5,45.82,23.59,2.11,2.04,7.03,6.81,10.18,14.63.95,2.35,1.66,4.81,2.13,7.32.02.12.03.24.03.37l.52,334.22c3.92,9.02,6.96,18.46,9.05,28.06,2.09,9.58,3.24,19.41,3.44,29.22.02.85-.5,1.61-1.29,1.91-11.17,4.23-22.71,6.92-34.3,7.99-3.62.33-6.94.48-10.01.48h.02ZM206.41,592.96c.65,0,1.31,0,1.98.02,14.96.26,24.43,3.26,33.59,6.17,10.72,3.4,20.85,6.62,39.13,4.94,10.77-.99,21.5-3.43,31.92-7.25-.27-9.08-1.38-18.17-3.31-27.03-2.06-9.48-5.08-18.79-8.98-27.69-.11-.25-.17-.52-.17-.8l-.52-334.45c-.42-2.18-1.05-4.33-1.88-6.38-2.83-7.03-7.33-11.38-9.25-13.24-13.89-13.43-42.96-22.27-44.19-22.63h0c-16.19-4.83-24.31-7.25-35.88-7.57-23.2-.64-40.88,7.16-52.58,12.32-.41.18-10.13,4.51-21.5,12.63-10.22,7.3-13.46,11.76-15.38,16.58-.83,2.09-1.41,4.3-1.71,6.56l-.81,338.85c0,.34-.09.67-.25.96-1.6,2.91-3.06,5.94-4.34,9.01-3.42,8.25-4.76,14.99-5.83,20.4-1.47,7.4-2.4,15.03-2.77,22.69,7.81,2.8,15.88,4.81,24,5.97,19.69,2.81,31.26-.58,43.51-4.16,9.92-2.9,20.17-5.9,35.22-5.9Z" style="fill: #20582c; stroke-width: 0px;"/>
                </g>
                <path d="M130.18,205.9c-1.32,0-2.63-.58-3.52-1.69-1.55-1.94-1.24-4.77.7-6.33,12.95-10.35,40.42-27.76,78.95-28.05h.97c38.96,0,66.75,17.54,79.9,28.05,1.94,1.55,2.26,4.38.7,6.32-1.55,1.94-4.38,2.26-6.33.7-12.23-9.78-38.06-26.08-74.28-26.08h-.91c-35.82.27-61.36,16.45-73.4,26.08-.83.66-1.82.99-2.81.99h.03Z" style="fill: #fff; stroke-width: 0px;"/>
                <path d="M152.9,560.2v-10.02c13.01-3.35,30.37-6.47,50.91-6.55,23.4-.08,42.88,3.82,56.85,7.75v8.82c-13.73-3.19-31.38-6-51.99-6.17-22.32-.18-41.31,2.81-55.77,6.17h0Z" style="fill: #fff; stroke-width: 0px;"/>
                <path d="M152.9,585.97v-10.02c13.01-3.35,30.37-6.47,50.91-6.55,23.4-.08,42.88,3.82,56.85,7.75v8.82c-13.73-3.19-31.38-6-51.99-6.17-22.32-.18-41.31,2.81-55.77,6.17h0Z" style="fill: #fff; stroke-width: 0px;"/>
                <rect x="161.36" y="614.75" width="91.41" height="91.41" rx="13.22" ry="13.22" style="fill: #cd2c2b; stroke-width: 0px;"/>
                <circle cx="184.17" cy="637.68" r="10.95" style="fill: #fff; stroke-width: 0px;"/>
                <rect x="205.58" y="627.82" width="12.18" height="24.83" style="fill: #fff; stroke-width: 0px;"/>
                <rect x="205.58" y="627.82" width="47.19" height="13.42" style="fill: #fff; stroke-width: 0px;"/>
                <path d="M205.46,662.59c3.67-.01,7.34-.02,11.01-.04-.05,3.55-.12,6.27-.17,7.9-.13,4.29-.27,6.86,1.31,9.1.64.91,1.3,1.38,1.7,1.62,2.1,1.27,4.41.64,4.74.54,2.14-.63,3.3-2.33,4.12-3.59,2.23-3.39,1.1-4.74,3.39-10.45.65-1.61,1.69-3.91,3.62-5.86,1.14-1.15,2.12-1.71,2.79-2.02,1.08-.51,2.07-.71,2.77-.8,4.01.01,8.02.03,12.03.04v12.19c-1.22-.1-2.94-.22-5.01-.31-2.2-.1-2.73-.07-3.35.15-1.98.73-2.91,2.78-3.59,4.32-1.6,3.65-.71,5.07-1.85,8.4-.15.44-1.23,3.49-3.82,6.01-4.8,4.68-11.49,4.37-12.68,4.32-1.56-.07-7.06-.53-11.51-4.76-2.12-2.02-3.16-4.1-3.67-5.12-1.7-3.44-1.86-6.38-2.1-11.32-.12-2.6-.14-6.13.27-10.33h0Z" style="fill: #fff; stroke-width: 0px;"/>
                <g>
                  <path d="M173.24,719.13l7.12,18.33,7.95,58.33c3.16,1.66,9.72,4.56,18.5,4.59,8.91.03,15.57-2.93,18.74-4.59,2.31-19.97,4.63-39.93,6.94-59.9l7.61-16.75h-66.86Z" style="fill: #c7d3d3; stroke-width: 0px;"/>
                  <path d="M206.93,801.87h-.12c-8.41-.02-15.08-2.6-19.2-4.76-.43-.23-.72-.64-.79-1.13l-7.93-58.15-7.05-18.16c-.18-.46-.12-.98.16-1.39.28-.41.74-.65,1.24-.65h66.85c.51,0,.98.26,1.26.69s.32.97.11,1.43l-7.51,16.54-6.91,59.67c-.06.49-.35.92-.79,1.16-4.15,2.17-10.86,4.76-19.32,4.76h0ZM189.69,794.8c3.85,1.92,9.77,4.05,17.13,4.07h.11c7.39,0,13.34-2.13,17.22-4.06l6.85-59.1c.02-.15.06-.31.12-.45l6.64-14.63h-62.33l6.33,16.29c.04.11.07.22.09.34l7.84,57.55h0Z" style="fill: #bec9cc; stroke-width: 0px;"/>
                </g>
                <g>
                  <g>
                    <rect x="175.1" y="323.59" width="64" height="211.41" rx="5" ry="5" style="fill: #fff; stroke-width: 0px;"/>
                    <text id="serial-number" x="207" y="429" font-family="Arial, Helvetica, sans-serif" font-size="48" font-weight="bold" fill="#395c41" text-anchor="middle" dominant-baseline="central" letter-spacing="1" transform="rotate(-90, 207, 429)" style="stroke-width: 0px;">260314</text>
                  </g>
                  <g>
                    <path d="M214.07,309.05c-.7,0-1.4-.21-2.01-.64-2.35-1.66-7-4.93-13.05-9.12l-.71-.49c-7.83-5.43-10.2-7.07-10.61-10.92-.56-5.22,3.67-8.67,13.27-15.99,5.95-4.53,12.09-9.03,18.26-13.38,1.58-1.11,3.76-.73,4.88.85,1.11,1.58.73,3.76-.85,4.88-6.1,4.3-12.17,8.74-18.05,13.22-4.27,3.25-10.71,8.17-10.55,9.68.3.82,3.7,3.18,7.63,5.91l.71.49c6.07,4.21,10.73,7.49,13.09,9.15,1.58,1.11,1.96,3.3.84,4.88-.68.97-1.76,1.48-2.86,1.48h.01Z" style="fill: #fff; stroke-width: 0px;"/>
                    <path d="M213.27,290.08c-1.93,0-3.5-1.57-3.5-3.5v-19.09c0-1.93,1.57-3.5,3.5-3.5s3.5,1.57,3.5,3.5v19.09c0,1.93-1.57,3.5-3.5,3.5Z" style="fill: #fff; stroke-width: 0px;"/>
                    <path d="M221.25,256.46h-27.68c-1.93,0-3.5-1.57-3.5-3.5s1.57-3.5,3.5-3.5h27.68c1.93,0,3.5,1.57,3.5,3.5s-1.57,3.5-3.5,3.5h0Z" style="fill: #fff; stroke-width: 0px;"/>
                    <path d="M211.28,246.02c-.34,0-.75-.02-1.19-.07-.54-.06-1.28-.15-2.13-.51-1.41-.6-2.59-1.75-3.33-3.23-.47-.94-.66-1.95-.73-3.86-.04-.97-.06-1.58,0-2.48v-43.63c-.7-1.15-1.92-1.9-3.24-1.96-1.47-.05-2.83.71-3.6,1.96v16.59c0,1.93-1.57,3.5-3.5,3.5s-3.5-1.57-3.5-3.5v-17.42c0-.47.1-.94.28-1.38,1.81-4.23,6.07-6.94,10.62-6.75,4.2.18,8,2.83,9.66,6.75.18.43.28.9.28,1.37v44.79c-.04.61-.03.95,0,1.88,0,.41.04.7.05.9.34.03.6,0,.7,0,.13,0,.27-.02.4-.02h9.19c1.93,0,3.5,1.57,3.5,3.5s-1.57,3.5-3.5,3.5h-9.01c-.22.02-.55.04-.96.04v.03ZM210.56,238.96h0Z" style="fill: #fff; stroke-width: 0px;"/>
                    <path d="M207.4,212.67c-.63,0-1.27-.17-1.85-.53-1.64-1.02-2.14-3.18-1.12-4.82l13.15-21.13c1.02-1.64,3.18-2.14,4.82-1.12,1.64,1.02,2.14,3.18,1.12,4.82l-13.15,21.13c-.66,1.07-1.81,1.65-2.97,1.65Z" style="fill: #fff; stroke-width: 0px;"/>
                    <path d="M199.43,231.41h-14.19c-1.38,0-2.5-1.12-2.5-2.5s1.12-2.5,2.5-2.5h14.19c1.38,0,2.5,1.12,2.5,2.5s-1.12,2.5-2.5,2.5Z" style="fill: #fff; stroke-width: 0px;"/>
                    <path d="M193.57,243.44c-1.38,0-2.5-1.12-2.5-2.5v-24.83c0-1.38,1.12-2.5,2.5-2.5s2.5,1.12,2.5,2.5v24.83c0,1.38-1.12,2.5-2.5,2.5Z" style="fill: #fff; stroke-width: 0px;"/>
                  </g>
                </g>
              </g>
              <g style="opacity: .53;">
                <path d="M213.52,820.16c4.94-3.16,12.33-8.81,17.74-17.98,16.63-28.21-5.38-56.01,11.45-81.9,8.15-12.54,14.28-7.51,24.63-21.8,11.99-16.55,12.69-35.6,11.82-63.55-1.11-35.84-1.66-53.76-5.67-77.84-4.94-29.7-4.48-80.19-3.57-181.17.35-38.26-1.55-76.57.31-114.79.78-16-.98-32.02-1.29-48.03-.28-14.13-.34-21.77-4.8-30.17-6.76-12.73-19.2-18.91-26.88-21.83,8.59,1.53,27.95,6.32,38.95,22.82,6.11,9.16,7.21,18.18,9.11,33.99,2.05,17.05.99,28.13.25,46.06-.7,16.98-.21,33.99-.49,50.99-2.43,148.51.63,126.07-.62,189.85-.13,6.38-.34,15.86.92,28.64,2.52,25.46,7.76,32.17,11.9,56.45,3.27,19.18,2.97,32.44,2.45,55.63-.73,32.7-4.73,40.89-10.22,46.06-3.29,3.1-6.69,4.72-17,13.42-6.35,5.37-12.06,10.66-13.79,12.44-18.31,18.78,4.05,57.74-12.56,83.26-4.31,6.63-13,15.02-32.64,19.46h0Z" style="fill: #fff; stroke-width: 0px;"/>
              </g>
            </g>
          </g>
          <g style="opacity: .65;">
            <path d="M209.86,834.8c-.65,0-1.3-.01-1.96-.03-21.82-.7-42.62-12.98-50.58-29.85-3.33-7.06-4.9-15.81-5.54-20.39-1.04-7.42-.93-14.14-.79-23.45.02-.97.04-2.04.06-3.28.06-3.02.15-7.15.19-13.07.06-8.1-.04-9.09-.23-10.27-.43-2.66-1.59-9.73-6.86-15.02-.48-.48-.62-.58-1.67-1.34-.77-.55-1.96-1.4-3.99-2.91-.04-.03-4.37-3.26-11.43-8.89-10.97-8.75-16.98-13.92-19.39-17.92-3.11-5.16-3.92-9.62-5.24-17-1.12-6.23-1.09-9.66-1.05-14.85.03-3.11.06-6.97-.14-12.59-.33-9.38-1.34-24.1-2.29-33.51l-.02-.22c-.21-2.03-.59-5.81-.5-10.76.07-3.61.31-6.47.65-10.12.24-2.62.61-6.59,1.42-11.64.23-1.45,1.09-6.53,2.28-11.27,1.9-7.58,4.94-15.46,9.05-23.42V206.94l.02-.13c.7-5.16,2.28-10,4.69-14.38,4.3-7.8,10.04-11.94,12.8-13.94,38.46-27.76,80.15-27.53,80.51-27.54,1.3.02,32.37.66,70.58,22.39,11.48,6.53,18.47,13.36,22.67,22.14,1.62,3.39,2.81,7.03,3.52,10.82l.04.38-.77,334.03c3.89,9.89,6.95,20.16,9.07,30.54,1.84,8.98,3.01,18.17,3.49,27.32v.1c-.01,16.82-.34,30.87-.98,41.75-.08,1.44-.17,2.77-.25,4.05-.29,4.41-.53,8.22-.51,13.98.01,3.52.12,5.85.2,7.72.14,3.1.22,4.81-.38,7.8-1.83,9.23-6.94,15.48-9.4,18.48-3.14,3.83-6.92,6.84-14.45,12.83-4.85,3.86-7.29,5.79-10.07,7.74-.96.67-1.81,1.25-2.6,1.79-2.79,1.9-4.48,3.04-6.52,5.32-1.03,1.15-2.94,3.29-4.25,6.36-1.64,3.83-1.49,7.14-1.31,10.97l.04.78c.02.37-.03,4.56-.18,19.04v1.02c-.11,9.46-.74,16.51-1.07,20.29-.97,10.98-1.51,17.03-3.97,23.11-.31.77-3.21,7.71-8.8,14.14-10.28,11.81-27.02,18.98-44.09,18.98v-.02ZM115.85,207.21v336.77l-.23.43c-4.08,7.84-7.09,15.57-8.95,22.98-1.15,4.59-1.98,9.53-2.21,10.94-.79,4.92-1.15,8.8-1.39,11.37-.34,3.67-.57,6.34-.63,9.83h0c-.09,4.71.27,8.2.48,10.28l.02.22c.96,9.49,1.98,24.32,2.31,33.77.2,5.71.17,9.62.14,12.76-.05,5.14-.07,8.24.98,14.11,1.29,7.16,2,11.11,4.73,15.64,2.09,3.46,8.1,8.59,18.46,16.86,7,5.59,11.28,8.78,11.33,8.81,2,1.49,3.17,2.33,3.92,2.87,1.12.8,1.46,1.05,2.18,1.77,6.17,6.21,7.48,14.19,7.97,17.2.26,1.58.34,2.85.28,10.95-.04,5.94-.13,10.09-.19,13.12-.03,1.23-.05,2.29-.06,3.26-.14,9.12-.24,15.72.75,22.83.49,3.51,1.98,12.42,5.2,19.24,7.23,15.32,27.04,26.91,47.09,27.56,16.54.53,33-6.2,42.9-17.57,5.25-6.04,8-12.73,8.11-13.01,2.15-5.3,2.68-10.56,3.7-21.96.33-3.73.95-10.68,1.05-19.98v-1.01c.14-11.84.2-18.36.19-18.84l-.03-.75c-.18-3.96-.37-8.05,1.63-12.72,1.57-3.67,3.85-6.23,4.95-7.45,2.37-2.65,4.42-4.04,7.25-5.96.77-.52,1.61-1.09,2.55-1.75,2.69-1.88,5.09-3.79,9.88-7.6,7.31-5.81,10.98-8.73,13.85-12.23,2.25-2.75,6.94-8.48,8.57-16.73.5-2.51.44-3.87.3-6.84-.08-1.81-.19-4.28-.21-7.88-.02-5.89.23-9.77.52-14.26.08-1.27.17-2.59.25-4.02.63-10.79.96-24.74.98-41.46-.47-8.93-1.61-17.91-3.41-26.67-2.11-10.28-5.14-20.45-9.01-30.23l-.14-.36.78-334.6c-.66-3.38-1.72-6.63-3.17-9.65-3.87-8.11-10.17-14.2-21.03-20.39-37.26-21.19-68.35-21.87-68.66-21.87-.44,0-40.79-.16-78.12,26.78-2.52,1.82-7.77,5.61-11.64,12.62-2.16,3.91-3.57,8.24-4.21,12.85v-.03Z" style="fill: #fff; stroke-width: 0px;"/>
          </g>
          <path d="M100.45,599.49c.07-3.56.3-6.33.64-9.97.26-2.81.62-6.62,1.41-11.51.14-.86,1.01-6.18,2.24-11.11,1.24-4.96,3.76-13.14,9.11-23.42V207.07c.41-3.04,1.44-8.2,4.46-13.68,4-7.26,9.37-11.22,12.22-13.28,38.35-27.69,79.32-27.16,79.32-27.16,0,0,31.42.4,69.62,22.13,10.34,5.88,17.51,12.19,21.85,21.26,1.97,4.13,2.89,7.85,3.36,10.33-.26,111.47-.52,222.94-.78,334.41,3.34,8.44,6.68,18.69,9.11,30.56,2.04,9.97,3.04,19.09,3.45,27.02-.02,20.63-.5,33.49-.98,41.63-.38,6.52-.8,10.68-.77,18.15.04,9.48.74,10.71-.13,15.12-1.7,8.57-6.45,14.51-8.99,17.61-3,3.67-6.72,6.62-14.15,12.53-4.83,3.84-7.24,5.75-9.98,7.67-4.42,3.1-6.65,4.28-9.46,7.41-1.17,1.31-3.19,3.6-4.6,6.9-1.94,4.53-1.62,8.39-1.44,12.62.01.34-.05,6.88-.19,19.94-.1,9.18-.69,16.07-1.05,20.14-.99,11.16-1.53,16.85-3.84,22.53-.21.51-3.03,7.34-8.46,13.57-10.19,11.71-27.35,18.81-44.47,18.26-20.23-.65-40.96-12.02-48.84-28.7-3.7-7.83-5.12-18.02-5.37-19.82-1.01-7.26-.91-13.84-.77-23.14.05-3.39.19-8.07.26-16.36.06-8.19-.03-9.25-.26-10.61-.53-3.23-1.81-10.47-7.42-16.11-1.02-1.02-.99-.8-5.88-4.44,0,0-4.26-3.18-11.38-8.85-11.33-9.04-16.78-13.83-18.92-17.39-2.92-4.85-3.66-8.95-4.99-16.32-1.74-9.69-.62-12.08-1.15-27.15-.35-9.86-1.37-24.52-2.3-33.64-.21-2.02-.61-5.73-.51-10.74l.03.02Z" style="fill: none; stroke: url(#linear-gradient); stroke-miterlimit: 10; stroke-width: 4px;"/>
        </g>
      </g>
    </g>
  </g>
</svg>